<?xml version="1.0" standalone="no"?>
<!DOCTYPE svg PUBLIC "-//W3C//DTD SVG 20010904//EN"
 "http://www.w3.org/TR/2001/REC-SVG-20010904/DTD/svg10.dtd">
<svg version="1.0" xmlns="http://www.w3.org/2000/svg"
 width="736.000000pt" height="736.000000pt" viewBox="0 0 736.000000 736.000000"
 preserveAspectRatio="xMidYMid meet">
<metadata>
Created by potrace 1.16, written by Peter Selinger 2001-2019
</metadata>
<g transform="translate(0.000000,736.000000) scale(0.100000,-0.100000)"
fill="#000000" stroke="none">
<path d="M0 3680 l0 -3680 3680 0 3680 0 0 3680 0 3680 -3680 0 -3680 0 0
-3680z m1916 3110 c5 -5 30 -14 54 -19 25 -6 81 -19 125 -31 44 -12 96 -25
115 -30 56 -13 530 -135 705 -180 88 -23 176 -46 195 -50 19 -4 125 -31 235
-60 110 -28 278 -71 373 -95 95 -24 177 -47 181 -50 5 -2 37 -11 72 -19 35 -8
100 -24 144 -36 86 -22 175 -45 355 -90 25 -6 68 -18 95 -26 28 -7 95 -25 150
-38 55 -14 163 -41 240 -61 77 -21 156 -41 175 -45 19 -4 132 -33 250 -63 118
-31 287 -74 375 -97 150 -38 195 -50 319 -86 26 -8 54 -14 62 -14 7 0 33 -6
56 -14 24 -7 86 -23 138 -36 52 -12 115 -28 140 -35 25 -7 72 -20 105 -28 229
-59 225 -58 225 -94 0 -18 -4 -33 -9 -33 -4 0 -13 -21 -19 -47 -5 -27 -33
-138 -62 -248 -28 -110 -58 -225 -65 -255 -8 -30 -30 -118 -50 -195 -20 -77
-42 -165 -50 -195 -7 -30 -30 -118 -50 -195 -20 -77 -42 -165 -50 -195 -7 -30
-36 -145 -65 -255 -29 -110 -56 -216 -60 -235 -4 -19 -22 -87 -39 -150 -17
-63 -39 -142 -47 -175 -9 -33 -22 -82 -29 -110 -24 -90 -77 -299 -85 -335 -4
-19 -24 -98 -45 -175 -20 -77 -43 -165 -50 -195 -49 -199 -67 -271 -80 -315
-14 -48 -53 -200 -81 -315 -7 -30 -23 -91 -34 -135 -12 -44 -24 -91 -27 -105
-3 -14 -19 -72 -35 -130 -17 -58 -34 -121 -38 -140 -4 -19 -39 -159 -78 -310
-39 -151 -80 -311 -92 -355 -29 -114 -40 -137 -59 -129 -31 13 -160 47 -896
234 -126 32 -266 68 -310 80 -44 12 -107 29 -140 36 -95 23 -120 29 -290 74
-88 23 -188 48 -223 55 -34 8 -66 16 -70 19 -9 6 -121 35 -499 132 -142 36
-310 79 -373 96 -63 16 -140 35 -170 43 -30 7 -93 23 -140 35 -47 13 -101 26
-120 30 -30 7 -368 94 -530 136 -30 8 -75 19 -100 25 -25 5 -65 16 -90 24 -65
20 -477 127 -855 222 -110 27 -144 48 -126 79 10 17 50 169 126 474 14 58 32
128 40 155 8 28 21 77 29 110 8 33 20 80 27 105 6 25 18 70 25 100 7 30 22 89
32 130 43 159 155 597 161 630 4 19 13 51 19 70 12 39 56 204 78 290 7 30 23
91 34 135 11 44 27 105 34 135 19 81 65 260 78 299 6 19 16 60 23 90 7 31 20
83 28 116 9 33 22 87 31 120 8 33 31 123 51 200 20 77 43 165 50 195 17 70 71
276 130 500 26 96 53 200 60 230 8 30 24 91 35 135 12 44 25 98 30 120 5 22
19 76 31 120 27 103 58 222 68 260 3 17 16 67 26 113 l20 82 35 0 c20 0 40 -4
46 -10z"/>
<path d="M3327 4283 c-7 -12 -35 -104 -40 -133 -3 -14 -15 -61 -27 -105 -12
-44 -27 -105 -35 -135 -11 -50 -44 -176 -97 -370 -39 -145 -47 -198 -31 -211
12 -10 175 -56 373 -104 30 -7 105 -27 165 -43 406 -109 399 -108 416 -64 6
15 14 45 19 67 4 22 18 76 30 120 12 44 27 105 35 135 7 30 25 100 40 155 52
196 77 291 90 345 7 30 16 63 20 72 11 27 -27 43 -225 92 -180 45 -338 86
-490 128 -41 11 -100 26 -130 33 -30 7 -67 16 -81 20 -15 3 -29 3 -32 -2z"/>
</g>
</svg>
